<svg width="26" height="25" viewBox="0 0 26 25" fill="none" xmlns="http://www.w3.org/2000/svg">
<path d="M13.0267 23.9998C12.7467 23.9998 12.4933 23.8132 12.4133 23.5465L11.4267 20.1065C10.5333 16.9465 8.06665 14.4932 4.90665 13.5998L1.45337 12.6132C1.12003 12.5198 0.92001 12.1732 1.01334 11.8398C1.06668 11.6265 1.24003 11.4665 1.45337 11.3998L4.90665 10.4132C8.06665 9.51983 10.5333 7.06649 11.4267 3.90649L12.4133 0.466505C12.5067 0.133172 12.8534 -0.0668305 13.2 0.0265028C13.4134 0.0931695 13.5733 0.253172 13.64 0.466505L14.6266 3.90649C15.52 7.06649 17.9866 9.51983 21.1466 10.4132L24.6 11.3998C24.9333 11.5332 25.0933 11.9198 24.96 12.2532C24.8933 12.4132 24.76 12.5465 24.6 12.6132L21.1466 13.5998C17.9866 14.4932 15.52 16.9598 14.6266 20.1065L13.64 23.5465C13.56 23.8132 13.3067 23.9998 13.0267 23.9998ZM4.7867 23.8665L5.09334 22.8265C5.36001 21.8798 6.10663 21.1465 7.0533 20.8798L8.09334 20.5865C8.20001 20.5465 8.24003 20.4265 8.20003 20.3332C8.17336 20.2798 8.14667 20.2532 8.09334 20.2265L7.0533 19.9332C6.10663 19.6665 5.36001 18.9332 5.09334 17.9865L4.7867 16.9465C4.76003 16.8398 4.65329 16.7865 4.54663 16.8132C4.47996 16.8265 4.43999 16.8798 4.41333 16.9465L4.12003 17.9865C3.85337 18.9332 3.10666 19.6665 2.15999 19.9332L1.12003 20.2265C1.01337 20.2532 0.959983 20.3598 0.98665 20.4665C0.999983 20.5332 1.05337 20.5732 1.12003 20.5998L2.15999 20.8932C3.10666 21.1598 3.85337 21.8932 4.12003 22.8398L4.41333 23.8798C4.43999 23.9865 4.54665 24.0398 4.65332 24.0132C4.71998 23.9998 4.76003 23.9465 4.7867 23.8798V23.8665ZM22.7333 4.7065L22.9333 4.01316C23.1067 3.38649 23.6 2.89316 24.24 2.71982L24.9333 2.51983C25 2.49316 25.0267 2.41316 25 2.34649C24.9867 2.31982 24.96 2.29317 24.9333 2.27984L24.24 2.07983C23.6133 1.90649 23.12 1.41316 22.9333 0.786492L22.7333 0.0931736C22.72 0.0265069 22.64 -0.0135102 22.5733 0.0131565C22.5333 0.0131565 22.5067 0.0531736 22.4933 0.0931736L22.2933 0.786492C22.12 1.41316 21.6266 1.90649 20.9866 2.07983L20.2933 2.27984C20.2266 2.29317 20.1866 2.37317 20.2133 2.43983C20.2133 2.47983 20.2533 2.5065 20.2933 2.51983L20.9866 2.71982C21.6133 2.89316 22.1066 3.38649 22.2933 4.01316L22.4933 4.7065C22.5067 4.77316 22.5867 4.81316 22.6533 4.78649C22.6933 4.78649 22.72 4.7465 22.7333 4.7065Z" fill="white"/>
</svg>
