<svg width="220" height="220" viewBox="0 0 220 220" fill="none" xmlns="http://www.w3.org/2000/svg">
<path d="M215.67 124.133C215.67 132.628 214.647 140.881 212.719 148.775C212.622 149.172 212.522 149.568 212.421 149.963C208.142 166.62 199.822 181.642 188.574 193.904H38.3032C21.4839 175.565 11.2086 151.058 11.2086 124.133C11.2086 106.198 15.7683 89.3336 23.7847 74.6514C24.17 73.9456 24.5633 73.2453 24.9645 72.5506C32.0673 60.2346 41.6365 49.5383 52.9905 41.1471C53.5335 40.7451 54.0802 40.3493 54.6305 39.9597C71.2627 28.1673 91.5472 21.2415 113.439 21.2415C145.741 21.2415 174.545 36.3202 193.279 59.866C193.592 60.26 193.902 60.6558 194.21 61.0534C207.66 78.4743 215.67 100.362 215.67 124.133Z" fill="url(#paint0_linear_156_1063)"/>
<path d="M116.746 198.758C171.394 198.758 215.694 195.864 215.694 192.294C215.694 188.724 171.394 185.83 116.746 185.83C62.0985 185.83 17.7979 188.724 17.7979 192.294C17.7979 195.864 62.0985 198.758 116.746 198.758Z" fill="#E9EBFF" fill-opacity="0.1"/>
<path d="M149.848 176.515C151.786 173.202 159.031 165.533 172.093 163.584C174.229 163.264 178.975 162.557 180.636 163.816C183.936 166.317 168.432 174.95 170.349 176.258C172.387 177.648 190.6 168.625 193.566 170.325C194.959 171.124 181.003 176.616 181.061 184.821C181.073 186.675 181.789 188.245 182.486 189.375L145.45 187.906C145.45 187.906 145.075 184.679 149.848 176.515Z" fill="#2CC672"/>
<path d="M118.422 150.37C104.055 147.817 94.4302 133.975 96.9671 119.515L102.191 89.7401C104.728 75.2795 118.481 65.5928 132.848 68.1462C147.216 70.6995 156.84 84.5414 154.303 99.002L149.079 128.777C146.543 143.236 132.79 152.924 118.422 150.37ZM131.39 76.4565C121.576 74.712 112.181 81.3292 110.448 91.2073L105.225 120.982C103.491 130.86 110.066 140.315 119.881 142.06C129.695 143.804 139.09 137.186 140.823 127.309L146.046 97.5342C147.78 87.656 141.205 78.2009 131.39 76.4565Z" fill="#C4D7F2"/>
<path d="M116.264 149.987C101.897 147.434 92.2724 133.592 94.8093 119.131L100.033 89.3566C102.57 74.896 116.323 65.2093 130.69 67.7626C145.058 70.316 154.682 84.1578 152.145 98.6184L146.922 128.393C144.385 142.853 130.632 152.54 116.264 149.987ZM129.233 76.0729C119.418 74.3285 110.024 80.9456 108.29 90.8237L103.067 120.598C101.334 130.476 107.908 139.932 117.723 141.676C127.537 143.42 136.932 136.803 138.665 126.925L143.889 97.1506C145.622 87.2725 139.047 77.8174 129.233 76.0729Z" fill="white"/>
<path d="M139.672 190.259L87.7997 181.04C82.135 180.033 78.3532 174.595 79.3539 168.893L88.5139 116.685C89.5139 110.983 94.9173 107.177 100.583 108.184L152.455 117.403C158.12 118.41 161.902 123.848 160.901 129.55L151.741 181.758C150.741 187.46 145.338 191.265 139.672 190.259Z" fill="#6A72E0"/>
<path d="M156.181 128.71L147.021 180.919C146.021 186.62 140.617 190.427 134.952 189.42L83.0792 180.2C77.4139 179.193 73.6327 173.754 74.6334 168.054L83.7934 115.845C84.794 110.143 90.1968 106.337 95.8621 107.344L147.735 116.563C153.4 117.571 157.181 123.009 156.181 128.71Z" fill="#575FCF"/>
<path opacity="0.18" d="M156.181 128.71L147.021 180.919C146.021 186.62 140.617 190.427 134.952 189.42L110.121 185.006L122.903 112.15L147.734 116.563C153.4 117.571 157.181 123.009 156.181 128.71Z" fill="#413A93"/>
<path opacity="0.18" d="M123.925 145.6C123.348 148.887 120.843 151.342 117.788 151.999L116.766 157.824C116.55 159.056 115.612 159.978 114.467 160.226C114.102 160.305 113.715 160.316 113.324 160.247C111.71 159.96 110.632 158.41 110.917 156.785L111.939 150.96C109.292 149.29 107.774 146.12 108.351 142.832C109.11 138.503 113.213 135.613 117.512 136.377C117.887 136.444 118.252 136.537 118.604 136.652C122.286 137.864 124.618 141.648 123.925 145.6Z" fill="#003889"/>
<path d="M123.925 145.6C123.348 148.887 120.843 151.342 117.788 151.999L116.766 157.824C116.55 159.056 115.612 159.978 114.467 160.226C113.478 159.597 112.91 158.408 113.126 157.177L114.148 151.352C111.502 149.682 109.983 146.512 110.56 143.224C111.253 139.272 114.732 136.52 118.603 136.651C122.286 137.864 124.618 141.648 123.925 145.6Z" fill="white"/>
<path opacity="0.18" d="M144.263 112.295C143.573 110.09 137.043 107.271 137.043 107.271L134.727 86.35C136.92 85.9585 138.628 84.4178 138.567 81.0197C138.417 72.5699 134.68 72.6323 136.691 65.079C137.399 62.4213 136.844 59.9711 135.613 57.9605L136.085 57.4356C136.156 57.3572 136.195 57.264 136.206 57.1713C137.763 57.012 139.455 56.0283 138.474 52.1844C137.299 47.5791 132.816 49.9417 130.276 51.7336L129.94 51.4391C129.77 51.2903 129.496 51.3218 129.327 51.5089L128.787 52.1097C128.618 52.2974 128.618 52.5697 128.788 52.7186L128.881 52.8001C128.826 52.8458 128.777 52.8871 128.733 52.9242C127.013 52.6167 125.147 52.9798 123.51 53.9542C121.522 55.1373 118.798 56.9466 118.699 58.0371C118.602 59.1004 118.779 59.4252 119.421 59.4487C119.305 59.7525 119.204 60.0656 119.121 60.3873C118.342 63.4081 119.349 66.1924 121.406 67.2217C121.257 67.8547 121.057 68.692 120.91 69.3021C120.798 69.7708 120.718 70.1036 120.718 70.1036C113.639 69.5503 104.341 76.4231 104.341 76.4231L104.859 77.2092L104.212 77.7507L101.181 80.2868C101.181 80.2868 93.5448 70.7464 93.3816 69.9746C93.3381 69.7677 93.3123 69.4731 93.2798 69.1397C93.2694 68.8322 93.2424 68.395 93.1779 67.9362L105.253 65.2105C106.237 64.9889 106.942 64.0268 106.829 63.0617L106.125 57.0559C106.012 56.0913 105.123 55.4887 104.139 55.711L66.9336 64.1083C65.9501 64.33 65.2452 65.2921 65.3581 66.2572L66.0624 72.263C66.1753 73.2275 67.0643 73.8302 68.0478 73.6079L88.2427 69.0495C88.8949 69.8548 89.7667 70.5649 90.3318 70.97C91.4423 71.7647 98.3107 84.1665 98.3107 84.1665C98.3107 84.1665 100.793 85.78 102.878 84.7179C103.436 84.4327 104.08 84.0541 104.726 83.6521C105.926 82.9037 107.125 82.0751 107.769 81.6218L108.046 82.0411L112.469 78.9746C113.249 79.1994 111.247 93.9946 110.493 96.9463C110.34 97.5459 110.385 97.9942 110.578 98.3239C110.2 98.369 109.734 98.3832 109.41 98.1992C109.336 98.1572 109.238 97.9201 109.111 97.5391C108.261 95.0061 106.15 86.1178 101.856 86.5476C96.9199 87.0416 82.2761 98.9192 82.2761 98.9192L82.5344 99.5114L80.0711 101.419L76.7421 103.997C76.5255 103.909 76.3844 103.852 76.3623 103.854C76.2672 103.857 71.0688 106.449 69.6227 106.62C68.365 106.769 67.2207 107.376 67.3858 108.275C67.4097 108.41 67.4649 108.55 67.5514 108.699C68.222 109.831 81.5743 111.842 83.1621 110.361C83.6038 109.949 83.8695 109.311 84.0216 108.606C84.418 106.776 84.056 104.49 84.056 104.49C84.0339 104.461 83.7879 103.86 83.2934 103.571L83.6639 103.294L84.056 103.001L84.1707 103.265C84.1707 103.265 97.2714 95.292 98.1929 97.1062C98.8733 98.4437 99.9869 105.145 101.614 108.181C101.936 108.781 102.278 109.236 102.64 109.48C99.6715 112.852 97.0683 115.824 96.7996 116.396C96.1579 117.763 94.6111 139.686 94.6111 139.686L94.9737 139.694L94.6768 143.814C94.032 143.737 93.5559 143.672 93.5141 143.685C93.4025 143.716 88.0323 148.15 86.3751 148.771C84.9333 149.311 83.7627 150.328 84.2247 151.281C84.2928 151.424 84.3996 151.565 84.5462 151.704C85.6745 152.768 102.043 151.044 103.479 148.922C103.879 148.331 104.002 147.54 103.974 146.709C103.898 144.55 102.792 142.109 102.792 142.109C102.743 142.072 101.826 140.892 100.699 141.381C100.308 141.551 100.024 141.903 99.7654 142.295L100.078 140.364L100.166 139.82L100.4 139.826L104.21 120.185C104.21 120.185 112.035 115.692 119.116 113.407C122.849 112.203 124.813 108.137 125.834 104.562C126.446 102.421 126.72 100.457 126.835 99.3885C126.839 99.3891 126.842 99.3897 126.846 99.3903C128.345 99.6558 127.954 87.4133 127.85 84.7007C128.285 84.9878 128.766 85.2508 129.274 85.4818C129.359 85.9949 129.459 86.6019 129.572 87.2849C130.77 94.5461 133.379 110.327 133.665 111.881C134.037 113.906 136.196 115.667 136.837 115.145C137.478 114.623 135.985 112.726 136.227 112.213C136.467 111.7 136.898 111.75 138.332 112.667C139.769 113.586 140.385 116.479 141.389 116.504C142.395 116.528 140.479 113.814 140.945 113.748C141.411 113.683 142.946 117.099 143.766 116.371C144.589 115.642 141.896 112.486 142.181 112.339C142.469 112.193 143.095 113.32 143.666 114.16C144.238 115.001 144.954 114.501 144.263 112.295ZM125.216 70.5964L126.138 67.6101L126.51 66.4085C126.59 66.3461 126.669 66.2819 126.747 66.2158C126.839 66.6475 126.862 67.0297 126.799 67.3329C126.672 67.9522 126.383 69.1749 126.082 70.6902C125.907 70.7094 125.807 70.7254 125.807 70.7254L125.216 70.5964Z" fill="#7E8BDC"/>
<path opacity="0.18" d="M133.846 184.367C133.483 184.258 133.062 184.311 132.709 184.506L129.735 186.164C129.352 186.377 128.874 186.282 128.703 185.957L126.956 182.672C126.871 182.512 126.713 182.392 126.517 182.337L123.213 181.42C122.95 181.347 122.646 181.398 122.406 181.555L119.827 183.244C119.404 183.52 118.835 183.419 118.651 183.035L117.233 180.076C117.122 179.842 116.902 179.668 116.622 179.59L107.142 176.951L101.999 175.523C104.273 167.781 100.767 160.468 93.2798 158.391C88.42 157.042 82.9418 158.192 78.3495 161.08C77.1857 155.824 73.4474 151.612 67.7287 150.025C57.8448 147.282 45.7288 153.399 40.7205 163.66C35.7111 173.922 39.6775 184.503 49.5615 187.247C55.6477 188.936 62.5806 187.266 68.1772 183.337C69.4 187.35 72.4695 190.513 76.9906 191.768C84.1885 193.766 92.7423 190.283 97.7677 183.786L133.166 193.611C133.41 193.678 133.698 193.607 133.926 193.421C133.968 193.385 134.015 193.346 134.065 193.304C134.092 193.28 134.12 193.255 134.15 193.229C134.155 193.225 134.159 193.221 134.165 193.216C134.186 193.197 134.207 193.178 134.23 193.157C134.368 193.032 134.522 192.885 134.689 192.716C134.726 192.68 134.763 192.641 134.801 192.601C134.892 192.505 134.986 192.405 135.082 192.297C135.326 192.024 135.586 191.709 135.855 191.35C136.256 190.812 136.672 190.176 137.07 189.432C137.166 189.252 137.262 189.066 137.356 188.873C138.685 186.147 135.278 184.8 133.846 184.367ZM75.5261 173.322C75.2003 173.991 74.8414 174.64 74.4536 175.271C74.4407 175.235 74.4285 175.197 74.4174 175.159C74.4064 175.123 74.3953 175.087 74.3867 175.051C74.3849 175.046 74.3837 175.041 74.3831 175.036C74.3739 175.005 74.3665 174.973 74.3591 174.941C74.3383 174.85 74.3211 174.757 74.307 174.663C74.3015 174.623 74.2966 174.584 74.2923 174.544C74.2867 174.497 74.2824 174.449 74.28 174.4C74.2769 174.368 74.2751 174.335 74.2745 174.301C74.2726 174.269 74.2714 174.237 74.2708 174.203C74.2702 174.161 74.2702 174.12 74.2714 174.077C74.2714 174.06 74.272 174.043 74.2732 174.024C74.2739 173.995 74.2751 173.966 74.2763 173.937C74.2794 173.885 74.2824 173.835 74.2874 173.783L74.2886 173.779C74.2923 173.733 74.2972 173.688 74.3039 173.643C74.3082 173.604 74.3137 173.566 74.3211 173.527C74.3248 173.502 74.3291 173.476 74.3334 173.451C74.3831 173.17 74.4641 172.885 74.5776 172.601C74.7039 172.283 74.861 171.982 75.0451 171.698C75.1365 171.557 75.2346 171.421 75.3389 171.289C75.3389 171.289 75.3402 171.289 75.3402 171.288C75.4089 171.201 75.4807 171.115 75.5543 171.033C75.7396 170.826 75.939 170.633 76.1519 170.456C76.1519 170.455 76.1519 170.455 76.1543 170.455C76.2482 170.403 76.3439 170.353 76.4408 170.307C76.4783 170.288 76.5151 170.271 76.5531 170.255C76.6175 170.225 76.6813 170.198 76.7458 170.172C76.7531 170.169 76.7617 170.166 76.7703 170.162C76.4531 171.212 76.0408 172.268 75.5261 173.322ZM76.2868 177.172C76.239 177.153 76.1917 177.133 76.1464 177.113C76.1003 177.094 76.0555 177.072 76.012 177.051C76.0102 177.051 76.0095 177.05 76.0083 177.049C75.9629 177.027 75.9187 177.004 75.8758 176.98C75.8347 176.957 75.7942 176.934 75.7555 176.91C75.7531 176.909 75.75 176.908 75.7488 176.905C75.723 176.888 75.6966 176.872 75.6709 176.856C75.6181 176.822 75.5678 176.785 75.5181 176.747C75.4856 176.723 75.4537 176.698 75.4224 176.672C75.3923 176.647 75.3623 176.623 75.3334 176.597C75.3267 176.592 75.3199 176.586 75.3132 176.58C75.2966 176.566 75.28 176.55 75.2641 176.535C75.2371 176.51 75.2101 176.484 75.1831 176.458C75.15 176.424 75.1175 176.389 75.0856 176.354C75.0776 176.345 75.0702 176.338 75.0629 176.328C75.0549 176.32 75.0469 176.31 75.0395 176.3C75.6034 175.44 76.1157 174.544 76.5709 173.611C76.8636 173.013 77.1243 172.414 77.3556 171.814C77.6102 171.155 77.8286 170.496 78.0121 169.84C78.0274 169.837 78.0428 169.835 78.0575 169.835C78.0839 169.831 78.1096 169.829 78.136 169.826C78.1483 169.825 78.1587 169.824 78.171 169.823C78.2072 169.819 78.2428 169.817 78.2784 169.814C78.2876 169.813 78.2974 169.813 78.306 169.813C78.3379 169.811 78.3698 169.809 78.4017 169.808C78.452 169.806 78.5017 169.805 78.552 169.805C79.0299 169.804 79.5011 169.885 79.9453 170.056C80.0895 170.111 80.2275 170.175 80.3576 170.247C80.4006 170.271 80.4435 170.296 80.4852 170.322C80.5687 170.374 80.649 170.429 80.7257 170.487C80.7638 170.516 80.8018 170.546 80.838 170.577C80.838 170.577 80.838 170.577 80.8392 170.577C80.9122 170.639 80.9822 170.703 81.0497 170.769H81.0509C81.1166 170.838 81.1804 170.908 81.2393 170.981C81.2595 171.006 81.2798 171.031 81.2994 171.057C81.3785 171.158 81.4509 171.267 81.5172 171.378C81.5503 171.435 81.581 171.492 81.6098 171.551C81.6246 171.58 81.6387 171.609 81.6522 171.638C81.6614 171.658 81.67 171.678 81.6785 171.698C81.7062 171.761 81.7325 171.824 81.7559 171.888C81.77 171.926 81.7835 171.966 81.7957 172.004C81.8166 172.067 81.8344 172.132 81.8509 172.196C81.8675 172.261 81.8828 172.326 81.8951 172.392C81.8951 172.392 81.8963 172.392 81.8957 172.393C81.9233 172.534 81.9411 172.679 81.9516 172.826C81.9602 172.949 81.9632 173.074 81.9589 173.201C81.9626 173.08 81.9595 172.961 81.9522 172.844C81.9602 172.962 81.9632 173.08 81.9595 173.201C81.9571 173.252 81.9552 173.302 81.9522 173.355C81.9503 173.367 81.9497 173.38 81.9491 173.391C81.9485 173.4 81.9473 173.409 81.9467 173.417C81.9436 173.456 81.9393 173.494 81.935 173.532C81.9319 173.554 81.9295 173.577 81.927 173.598C81.924 173.62 81.9215 173.642 81.9178 173.664C81.9123 173.703 81.9062 173.742 81.8988 173.781C81.8485 174.06 81.7669 174.344 81.6546 174.627C81.5908 174.786 81.5203 174.941 81.4429 175.091C81.4429 175.091 81.4436 175.093 81.4423 175.093C81.3374 175.293 81.2209 175.486 81.0939 175.67C80.8055 176.084 80.4619 176.455 80.0785 176.774C78.8802 177.434 77.4863 177.632 76.2868 177.172ZM50.0898 186.163C40.7813 183.579 37.0461 173.614 41.7623 163.95C46.4797 154.286 57.8902 148.525 67.1986 151.11C72.6885 152.634 76.2408 156.725 77.2636 161.807C74.3352 163.892 71.8437 166.707 70.2209 170.033C70.089 170.305 69.9632 170.577 69.8448 170.849C69.7037 171.107 69.5699 171.368 69.4399 171.633C67.8349 174.921 67.3054 178.243 67.7158 181.235C67.7643 181.589 67.8269 181.939 67.9011 182.283C62.5824 186.124 55.9226 187.782 50.0898 186.163Z" fill="#003889"/>
<path d="M84.7204 157.428C79.5705 156.041 74.3401 157.223 70.3687 160.19C70.0503 160.427 69.7405 160.676 69.4399 160.936C66.96 163.078 65.0746 165.97 64.1672 169.387C64.0936 169.666 64.0267 169.946 63.9666 170.225C62.1051 178.968 67.3692 187.737 76.0488 190.073C84.7345 192.41 93.651 187.447 96.3664 178.923C96.4511 178.657 96.5296 178.387 96.6027 178.114C98.9973 169.1 93.6773 159.837 84.7204 157.428ZM70.1798 172.766C69.9982 173.454 69.7785 174.12 69.527 174.769C69.5061 174.731 69.4859 174.693 69.4669 174.654C69.4485 174.618 69.4294 174.58 69.4129 174.542C69.4098 174.537 69.408 174.532 69.4061 174.527C69.3902 174.495 69.3754 174.462 69.362 174.429C69.3215 174.335 69.284 174.24 69.2497 174.143C69.2362 174.103 69.2221 174.062 69.2092 174.02C69.1932 173.972 69.1785 173.922 69.1656 173.873C69.1558 173.84 69.1466 173.806 69.1392 173.771C69.1306 173.738 69.1227 173.705 69.1147 173.67C69.1049 173.628 69.0963 173.585 69.0883 173.542C69.0846 173.524 69.0816 173.506 69.0785 173.488C69.0724 173.458 69.0675 173.428 69.0625 173.397C69.0546 173.345 69.0466 173.292 69.0411 173.24V173.235C69.0349 173.189 69.03 173.142 69.0276 173.095C69.0239 173.056 69.0208 173.016 69.0196 172.977C69.0178 172.951 69.0165 172.924 69.0159 172.898C69.0049 172.609 69.0245 172.317 69.0767 172.025C69.1349 171.698 69.227 171.389 69.3497 171.097C69.4104 170.951 69.4797 170.812 69.5552 170.677C69.5552 170.677 69.5564 170.677 69.5564 170.675C69.6067 170.587 69.6595 170.498 69.716 170.413C69.8565 170.2 70.0147 170.002 70.1896 169.821C70.1896 169.82 70.1896 169.82 70.1914 169.82C70.2743 169.766 70.3595 169.716 70.4461 169.668C70.4798 169.65 70.5129 169.632 70.5473 169.615C70.6056 169.584 70.6632 169.557 70.7221 169.53C70.7289 169.527 70.7369 169.523 70.7448 169.52C70.6528 170.598 70.4681 171.683 70.1798 172.766ZM76.4752 174.584C76.4132 174.79 76.3384 174.988 76.2513 175.177C76.0519 175.602 75.7881 175.983 75.4733 176.311C74.418 176.989 73.0677 177.193 71.7688 176.72C71.7167 176.702 71.6658 176.681 71.6154 176.66C71.5651 176.64 71.5161 176.618 71.4682 176.596C71.4664 176.596 71.4651 176.595 71.4645 176.594C71.4142 176.571 71.3651 176.548 71.3173 176.523C71.2713 176.5 71.2258 176.476 71.1817 176.451C71.1786 176.45 71.1755 176.449 71.1737 176.446C71.1442 176.429 71.1148 176.413 71.0854 176.395C71.0252 176.36 70.9669 176.322 70.9093 176.284C70.8712 176.259 70.8344 176.234 70.7976 176.207C70.762 176.182 70.7271 176.156 70.6927 176.13C70.6847 176.124 70.6767 176.118 70.6688 176.112C70.662 176.107 70.6553 176.102 70.6479 176.097C70.635 176.086 70.6221 176.076 70.6099 176.066C70.5774 176.04 70.5448 176.013 70.5123 175.987C70.4718 175.952 70.4319 175.916 70.3927 175.88C70.3829 175.871 70.3737 175.863 70.3645 175.853C70.3546 175.845 70.3448 175.835 70.335 175.825C70.7136 174.941 71.0332 174.02 71.2878 173.062C71.4522 172.448 71.5835 171.832 71.686 171.216C71.7989 170.539 71.8756 169.862 71.9179 169.188C71.9326 169.185 71.9474 169.183 71.9621 169.182C71.9879 169.178 72.013 169.176 72.0388 169.173C72.0504 169.172 72.0615 169.171 72.0731 169.17C72.1087 169.166 72.1437 169.164 72.178 169.161C72.1866 169.16 72.1965 169.16 72.2057 169.16C72.2369 169.158 72.2689 169.156 72.3001 169.155C72.3505 169.153 72.3995 169.152 72.4498 169.152C72.9278 169.151 73.4161 169.234 73.8972 169.41C74.0536 169.467 74.2051 169.532 74.3506 169.607C74.3984 169.631 74.4469 169.657 74.4941 169.684C74.5886 169.736 74.6806 169.794 74.7702 169.853C74.8144 169.883 74.8586 169.913 74.9021 169.945C74.9021 169.945 74.9021 169.945 74.9033 169.945C74.9899 170.009 75.0733 170.075 75.1549 170.143H75.1561C75.2365 170.214 75.3156 170.286 75.3899 170.36C75.4156 170.386 75.4408 170.411 75.4666 170.438C75.5678 170.543 75.6635 170.654 75.7537 170.769C75.7991 170.827 75.842 170.885 75.8838 170.946C75.9046 170.976 75.9249 171.005 75.9445 171.036C75.9494 171.044 75.9555 171.052 75.9605 171.059C76.0108 171.135 76.058 171.213 76.1022 171.292C76.1249 171.332 76.1464 171.373 76.1672 171.412C76.2016 171.476 76.2329 171.543 76.2635 171.609C76.2942 171.675 76.3237 171.742 76.35 171.81C76.35 171.81 76.3513 171.81 76.3513 171.811C76.4574 172.078 76.5378 172.356 76.5893 172.641C76.5979 172.693 76.6071 172.746 76.6151 172.799C76.6163 172.812 76.6182 172.825 76.62 172.837C76.6212 172.845 76.6218 172.855 76.6231 172.863C76.628 172.903 76.6317 172.942 76.636 172.981C76.6378 173.004 76.6396 173.027 76.6421 173.048C76.6439 173.071 76.6458 173.094 76.647 173.117C76.6501 173.157 76.6519 173.197 76.6531 173.237C76.6629 173.524 76.6421 173.815 76.5912 174.106C76.5617 174.269 76.5243 174.428 76.4789 174.582C76.4752 174.582 76.4764 174.584 76.4752 174.584Z" fill="#C4D7F2"/>
<path d="M115.394 182.745C115.661 183.14 116.252 183.243 116.616 182.96L118.831 181.225C119.038 181.064 119.331 181.011 119.609 181.087L123.11 182.028C123.318 182.084 123.502 182.208 123.621 182.373L126.075 185.748C126.317 186.081 126.815 186.179 127.153 185.96L129.771 184.257C130.081 184.055 130.49 184.001 130.876 184.113C132.401 184.557 136.099 185.942 135.354 188.743C135.302 188.94 135.246 189.133 135.189 189.317C134.95 190.081 134.672 190.735 134.386 191.288C134.195 191.656 134.002 191.98 133.817 192.261C133.744 192.371 133.672 192.475 133.601 192.573C133.572 192.614 133.543 192.653 133.514 192.691C133.384 192.865 133.261 193.017 133.151 193.144C133.132 193.166 133.115 193.185 133.098 193.204C133.094 193.21 133.09 193.214 133.086 193.219C133.062 193.245 133.04 193.271 133.017 193.295C132.976 193.338 132.938 193.378 132.903 193.415C132.716 193.606 132.442 193.68 132.184 193.61L92.0632 182.814L94.3308 174.276L102.576 176.495L112.624 179.207C112.921 179.286 113.178 179.466 113.34 179.705L115.394 182.745Z" fill="#36588E"/>
<path d="M92.9534 177.952L135.189 189.317C134.951 190.081 134.672 190.735 134.387 191.288C134.195 191.656 134.003 191.98 133.818 192.261C133.745 192.371 133.673 192.475 133.602 192.573C133.572 192.614 133.543 192.654 133.515 192.691C133.384 192.865 133.262 193.017 133.151 193.144C133.132 193.166 133.116 193.185 133.098 193.204C133.094 193.21 133.09 193.214 133.087 193.219C133.063 193.245 133.04 193.271 133.017 193.295C132.977 193.338 132.939 193.378 132.904 193.416C132.716 193.606 132.443 193.68 132.185 193.61L91.6889 182.713L92.9534 177.952Z" fill="white"/>
<path d="M94.8069 180.638L134.386 191.288C134.195 191.656 134.002 191.981 133.817 192.261L94.5271 181.689L94.8069 180.638Z" fill="#36588E"/>
<path d="M84.2842 159.071C79.8552 157.879 75.3666 158.585 71.6707 160.694C71.3688 160.867 71.0719 161.049 70.7811 161.238C70.7387 161.265 70.6976 161.292 70.6559 161.319C70.3675 161.512 70.0853 161.714 69.8092 161.925C67.141 163.958 65.0544 166.804 63.966 170.224C63.8807 170.489 63.8028 170.758 63.7298 171.029C62.8322 174.408 63.0181 177.82 64.0721 180.894C64.1973 181.259 64.3347 181.617 64.4832 181.971C64.4893 181.984 64.4942 181.998 64.4997 182.012C64.531 182.086 64.5629 182.158 64.5948 182.232C64.6255 182.302 64.6568 182.373 64.6893 182.442C64.7139 182.497 64.7402 182.552 64.766 182.608C64.7955 182.672 64.8261 182.735 64.8562 182.797C64.8985 182.884 64.9409 182.97 64.9838 183.055C67.0704 187.177 70.8203 190.427 75.6114 191.717C84.5683 194.127 93.77 188.774 96.1652 179.758C96.2388 179.48 96.3057 179.201 96.3658 178.923C98.2285 170.178 92.9644 161.407 84.2842 159.071ZM73.8953 169.41C74.0518 169.468 74.2033 169.533 74.3487 169.607C74.3966 169.632 74.4451 169.658 74.4923 169.684C74.5868 169.737 74.6788 169.794 74.7684 169.854C74.8126 169.883 74.8567 169.914 74.9003 169.946C74.9003 169.946 74.9003 169.946 74.9015 169.946C74.988 170.009 75.0715 170.075 75.1531 170.144H75.1543C75.2347 170.214 75.3138 170.286 75.388 170.36C75.4138 170.386 75.439 170.412 75.4647 170.439C75.566 170.544 75.6617 170.654 75.7519 170.769C75.7973 170.828 75.8402 170.886 75.8819 170.946C75.9028 170.976 75.923 171.006 75.9427 171.037C75.9476 171.045 75.9537 171.053 75.9586 171.06C76.0089 171.135 76.0562 171.214 76.1004 171.293C76.1231 171.332 76.1445 171.373 76.1654 171.413C76.1997 171.477 76.231 171.544 76.2617 171.61C76.2924 171.676 76.3218 171.743 76.3482 171.81C76.3482 171.81 76.3495 171.81 76.3495 171.812C76.4556 172.079 76.536 172.357 76.5875 172.642C76.5961 172.694 76.6053 172.747 76.6133 172.8C76.6145 172.813 76.6163 172.826 76.6182 172.837C76.6194 172.846 76.62 172.855 76.6212 172.864C76.6261 172.903 76.6298 172.943 76.6341 172.982C76.636 173.005 76.6378 173.027 76.6403 173.049C76.6421 173.072 76.6439 173.095 76.6452 173.118C76.6482 173.157 76.6501 173.198 76.6513 173.237C76.6611 173.525 76.6403 173.815 76.5893 174.106C76.5599 174.269 76.5225 174.429 76.4771 174.583C76.4771 174.583 76.4783 174.584 76.4771 174.585C76.4151 174.79 76.3402 174.989 76.2531 175.178C76.0537 175.603 75.7899 175.984 75.4752 176.311C74.4199 176.99 73.0695 177.194 71.7707 176.721C71.7185 176.702 71.6676 176.681 71.6173 176.66C71.567 176.64 71.5179 176.619 71.47 176.597C71.4682 176.597 71.467 176.595 71.4664 176.595C71.4161 176.572 71.367 176.548 71.3191 176.524C71.2731 176.5 71.2277 176.476 71.1835 176.452C71.1805 176.45 71.1774 176.45 71.1756 176.447C71.1461 176.43 71.1167 176.413 71.0872 176.396C71.0271 176.361 70.9688 176.323 70.9111 176.285C70.8731 176.259 70.8363 176.234 70.7995 176.208C70.7639 176.182 70.7289 176.157 70.6945 176.13C70.6866 176.125 70.6786 176.119 70.6706 176.112C70.6639 176.108 70.6571 176.103 70.6498 176.098C70.6369 176.087 70.624 176.077 70.6117 176.066C70.5792 176.04 70.5467 176.014 70.5142 175.987C70.4737 175.953 70.4338 175.917 70.3945 175.88C70.3847 175.872 70.3755 175.864 70.3663 175.854C70.3565 175.845 70.3467 175.835 70.3369 175.825C70.7154 174.942 71.0351 174.02 71.2897 173.063C71.4541 172.448 71.5854 171.833 71.6878 171.216C71.8007 170.54 71.8774 169.863 71.9198 169.188C71.9345 169.185 71.9492 169.184 71.9639 169.182C71.9897 169.179 72.0149 169.176 72.0406 169.174C72.0523 169.172 72.0633 169.172 72.075 169.171C72.1106 169.167 72.1455 169.164 72.1799 169.162C72.1885 169.161 72.1983 169.161 72.2075 169.161C72.2388 169.159 72.2707 169.157 72.302 169.156C72.3523 169.154 72.4014 169.153 72.4517 169.153C72.926 169.152 73.4149 169.235 73.8953 169.41ZM69.0767 172.025C69.135 171.698 69.227 171.389 69.3497 171.097C69.4104 170.951 69.4798 170.812 69.5552 170.677C69.5552 170.677 69.5564 170.677 69.5564 170.675C69.6068 170.587 69.6595 170.498 69.716 170.413C69.8565 170.2 70.0148 170.002 70.1896 169.821C70.1896 169.82 70.1896 169.82 70.1915 169.82C70.2743 169.766 70.3596 169.716 70.4461 169.668C70.4798 169.65 70.5129 169.632 70.5473 169.615C70.6056 169.584 70.6633 169.557 70.7222 169.53C70.7289 169.527 70.7369 169.523 70.7449 169.52C70.6522 170.599 70.4675 171.683 70.1798 172.766C69.9982 173.454 69.7785 174.12 69.527 174.769C69.5061 174.731 69.4859 174.693 69.4669 174.654C69.4485 174.618 69.4294 174.58 69.4129 174.542C69.4098 174.537 69.408 174.532 69.4061 174.527C69.3902 174.495 69.3755 174.462 69.362 174.429C69.3215 174.335 69.284 174.24 69.2497 174.143C69.2362 174.103 69.2221 174.062 69.2092 174.02C69.1932 173.972 69.1785 173.922 69.1656 173.873C69.1558 173.839 69.1466 173.806 69.1393 173.771C69.1307 173.738 69.1227 173.705 69.1147 173.67C69.1049 173.628 69.0963 173.585 69.0883 173.542C69.0846 173.524 69.0816 173.506 69.0785 173.488C69.0724 173.458 69.0675 173.428 69.0626 173.397C69.0546 173.345 69.0466 173.292 69.0411 173.24V173.235C69.035 173.189 69.03 173.142 69.0276 173.095C69.0239 173.056 69.0208 173.016 69.0196 172.977C69.0178 172.951 69.0165 172.924 69.0159 172.898C69.0055 172.609 69.0251 172.316 69.0767 172.025Z" fill="white"/>
<path d="M75.4739 176.311C74.3499 177.482 72.5922 177.958 70.9307 177.315C69.0717 176.596 67.9662 174.611 68.3214 172.638C68.5404 171.416 69.2466 170.429 70.1902 169.822C70.0154 170.002 69.8571 170.201 69.7166 170.413C69.6607 170.498 69.6074 170.586 69.557 170.676C69.557 170.677 69.5558 170.677 69.5558 170.677C69.4804 170.813 69.411 170.952 69.3503 171.097C69.2276 171.388 69.1349 171.698 69.0773 172.025C69.0251 172.317 69.0055 172.61 69.0165 172.899C69.0178 172.924 69.0184 172.951 69.0202 172.977C69.0214 173.016 69.0239 173.056 69.0282 173.096C69.0313 173.142 69.0362 173.189 69.0417 173.235V173.24C69.0478 173.293 69.0552 173.345 69.0632 173.397C69.0681 173.428 69.073 173.458 69.0791 173.488C69.0822 173.506 69.0852 173.524 69.0889 173.542C69.0969 173.585 69.1055 173.628 69.1153 173.67C69.1233 173.705 69.1313 173.739 69.1399 173.771C69.1478 173.806 69.1564 173.84 69.1662 173.873C69.1791 173.922 69.1938 173.972 69.2098 174.021C69.2227 174.062 69.2362 174.103 69.2503 174.143C69.2846 174.24 69.3221 174.335 69.3626 174.429C69.3761 174.462 69.3908 174.495 69.4067 174.528C69.4086 174.532 69.4104 174.537 69.4135 174.542C69.43 174.58 69.4491 174.618 69.4675 174.654C69.4865 174.692 69.5067 174.731 69.5276 174.769C69.7791 174.121 69.9988 173.454 70.1804 172.766C70.4688 171.683 70.6534 170.598 70.7455 169.52C70.7663 169.51 70.7866 169.502 70.8086 169.492C70.8725 169.465 70.9363 169.438 71.0025 169.415C71.0209 169.407 71.0406 169.4 71.0596 169.394C71.0927 169.381 71.1277 169.37 71.1608 169.36C71.1743 169.355 71.1872 169.35 71.2001 169.347C71.2308 169.337 71.2602 169.327 71.2903 169.319C71.3295 169.307 71.37 169.296 71.4093 169.286C71.4504 169.275 71.4921 169.265 71.5332 169.255C71.5467 169.252 71.5596 169.249 71.5737 169.247C71.6032 169.24 71.6326 169.235 71.6633 169.229C71.686 169.224 71.7093 169.22 71.732 169.216C71.7633 169.21 71.7958 169.205 71.8283 169.2C71.84 169.198 71.851 169.196 71.8627 169.195C71.8713 169.193 71.8811 169.192 71.8909 169.191C71.8995 169.189 71.9087 169.188 71.9167 169.188C71.8744 169.862 71.7977 170.538 71.6848 171.216C71.5823 171.832 71.451 172.448 71.2866 173.062C71.032 174.02 70.7123 174.941 70.3338 175.825C70.3436 175.835 70.3534 175.845 70.3632 175.853C70.373 175.863 70.3816 175.871 70.3914 175.88C70.4307 175.916 70.4712 175.952 70.5111 175.987C70.5436 176.013 70.5761 176.04 70.6086 176.066C70.6215 176.077 70.6344 176.087 70.6467 176.097C70.6534 176.102 70.6602 176.107 70.6675 176.112C70.6755 176.118 70.6835 176.124 70.6915 176.13C70.7258 176.156 70.7608 176.182 70.7964 176.207C70.8332 176.234 70.8706 176.259 70.908 176.284C70.9657 176.323 71.024 176.36 71.0841 176.395C71.1136 176.412 71.143 176.429 71.1725 176.446C71.1743 176.449 71.1774 176.45 71.1805 176.451C71.2246 176.476 71.27 176.5 71.316 176.523C71.3645 176.548 71.4136 176.572 71.4633 176.594C71.4645 176.596 71.4651 176.596 71.467 176.596C71.5154 176.618 71.5645 176.64 71.6142 176.66C71.6645 176.681 71.7154 176.701 71.7676 176.72C73.0677 177.194 74.4187 176.99 75.4739 176.311Z" fill="#C4D7F2"/>
<path d="M91.2441 173.178L88.6378 182.988C88.4931 183.532 87.9329 183.858 87.3924 183.713C86.8519 183.568 86.5279 183.004 86.6721 182.46L89.2784 172.65C89.4232 172.106 89.9833 171.78 90.5238 171.925C91.0644 172.07 91.3883 172.634 91.2441 173.178Z" fill="#36588E"/>
<path opacity="0.18" d="M72.2044 169.161C72.1958 169.161 72.186 169.161 72.1768 169.162C72.1425 169.165 72.1069 169.167 72.0719 169.171C72.0602 169.172 72.0492 169.172 72.0375 169.174C72.0118 169.177 71.9866 169.179 71.9609 169.182C71.9461 169.184 71.9314 169.185 71.9167 169.189C71.8744 169.862 71.7977 170.539 71.6848 171.216L70.6651 170.941C70.8001 170.432 70.9117 169.924 71.0025 169.415C71.4952 166.652 71.3473 163.897 70.6565 161.32C70.6976 161.292 70.7393 161.265 70.7817 161.239C71.0725 161.049 71.3694 160.868 71.6713 160.695C72.4413 163.383 72.6529 166.263 72.2044 169.161Z" fill="#003889"/>
<path d="M71.9167 169.188C71.8744 169.862 71.7977 170.539 71.6848 171.216C71.5823 171.833 71.451 172.448 71.2866 173.063C71.032 174.02 70.7123 174.942 70.3338 175.825C70.3154 175.809 70.2964 175.791 70.2786 175.773C70.2774 175.773 70.2755 175.772 70.2749 175.769C70.2375 175.733 70.2013 175.695 70.1651 175.656C70.1295 175.618 70.0933 175.578 70.0589 175.538C70.0246 175.497 69.9902 175.457 69.9565 175.415C69.9233 175.375 69.8908 175.332 69.8589 175.289C69.8276 175.247 69.797 175.204 69.7663 175.16C69.7356 175.116 69.7074 175.073 69.6785 175.027C69.6503 174.982 69.6227 174.938 69.5957 174.891C69.5724 174.85 69.5497 174.81 69.527 174.768V174.767C69.7786 174.119 69.9982 173.452 70.1798 172.764C70.4682 171.681 70.6528 170.596 70.7449 169.518C70.7657 169.508 70.786 169.5 70.8081 169.49C70.8719 169.463 70.9357 169.436 71.0019 169.413C71.0203 169.405 71.04 169.398 71.059 169.392C71.0921 169.379 71.1271 169.368 71.1602 169.358C71.1737 169.353 71.1866 169.348 71.1995 169.345C71.2302 169.335 71.2596 169.325 71.2897 169.317C71.3289 169.305 71.3694 169.294 71.4087 169.284C71.4498 169.273 71.4915 169.263 71.5326 169.253C71.5461 169.25 71.559 169.247 71.5731 169.245C71.6026 169.239 71.632 169.233 71.6627 169.227C71.6854 169.222 71.7087 169.218 71.7314 169.214C71.7627 169.208 71.7952 169.203 71.8277 169.198C71.8394 169.196 71.8504 169.194 71.8621 169.193C71.8707 169.191 71.8805 169.19 71.8903 169.189C71.8995 169.189 71.9087 169.188 71.9167 169.188Z" fill="white"/>
<path d="M70.6681 176.114C70.6761 176.12 70.6841 176.126 70.6921 176.132C70.6773 176.121 70.6619 176.11 70.6472 176.099C70.601 176.063 70.5554 176.025 70.5111 175.988C70.5437 176.014 70.5764 176.042 70.609 176.067C70.6287 176.083 70.6484 176.099 70.6681 176.114Z" fill="white"/>
<path d="M70.7964 176.208C70.7891 176.203 70.7812 176.198 70.7738 176.193C70.7476 176.174 70.7208 176.155 70.6945 176.134C70.6939 176.133 70.6927 176.132 70.6921 176.132C70.7262 176.158 70.761 176.183 70.7964 176.208Z" fill="white"/>
<path d="M70.909 176.286C70.8709 176.261 70.8339 176.235 70.797 176.208C70.8339 176.234 70.8709 176.26 70.909 176.286Z" fill="white"/>
<path d="M70.4467 169.668C70.3602 169.716 70.2749 169.767 70.1921 169.82V169.819C70.2743 169.765 70.3602 169.715 70.4467 169.668Z" fill="white"/>
<path d="M71.9609 169.182C71.9462 169.184 71.9314 169.185 71.9167 169.189C71.8744 169.862 71.7977 170.539 71.6848 171.216C71.5823 171.833 71.451 172.448 71.2866 173.063C71.032 174.02 70.7123 174.942 70.3338 175.825C70.3436 175.835 70.3534 175.845 70.3632 175.854C70.3534 175.845 70.3424 175.836 70.3326 175.826C70.3142 175.809 70.2964 175.791 70.2786 175.772C70.2774 175.772 70.2755 175.771 70.2749 175.769C70.2375 175.732 70.2013 175.695 70.1651 175.656C70.1295 175.617 70.0933 175.577 70.0589 175.538C70.0246 175.497 69.9902 175.457 69.9565 175.415C69.9233 175.374 69.8908 175.331 69.8589 175.289C69.8276 175.246 69.797 175.204 69.7663 175.159C69.7356 175.115 69.7074 175.072 69.6785 175.026C69.6503 174.982 69.6227 174.937 69.5957 174.891C69.5724 174.85 69.5497 174.81 69.527 174.768V174.766C69.7786 174.118 69.9982 173.451 70.1798 172.763C70.4682 171.681 70.6528 170.596 70.7449 169.518C70.7369 169.521 70.7289 169.524 70.7222 169.528C70.7301 169.524 70.7369 169.52 70.7449 169.516C70.7657 169.508 70.786 169.498 70.8081 169.49C70.8719 169.462 70.9357 169.436 71.0019 169.413C71.0203 169.405 71.04 169.398 71.059 169.392C71.0921 169.379 71.1271 169.367 71.1602 169.357C71.1737 169.352 71.1866 169.347 71.1995 169.344C71.2302 169.334 71.2596 169.324 71.2897 169.316C71.3289 169.305 71.3694 169.294 71.4087 169.284C71.4498 169.273 71.4915 169.263 71.5326 169.253C71.5461 169.25 71.559 169.247 71.5731 169.244C71.6026 169.238 71.632 169.232 71.6627 169.226C71.6854 169.221 71.7087 169.218 71.7314 169.213C71.7627 169.207 71.7952 169.202 71.8277 169.197C71.8394 169.195 71.8504 169.193 71.8621 169.192C71.8707 169.19 71.8805 169.189 71.8903 169.189C71.8989 169.187 71.9069 169.185 71.9161 169.185C71.9314 169.185 71.9462 169.184 71.9609 169.182Z" fill="white"/>
<path d="M74.7684 169.854C74.6788 169.794 74.5868 169.737 74.4923 169.684C74.5868 169.737 74.6794 169.793 74.7684 169.854Z" fill="white"/>
<path d="M75.153 170.143C75.0714 170.075 74.988 170.009 74.9015 169.945C74.988 170.008 75.0714 170.074 75.153 170.143Z" fill="white"/>
<path d="M75.3881 170.36C75.3132 170.286 75.2347 170.214 75.1543 170.143C75.2347 170.212 75.3132 170.284 75.3881 170.36Z" fill="white"/>
<path d="M75.4647 170.438C75.5672 170.543 75.6623 170.654 75.7518 170.769C75.6617 170.654 75.566 170.543 75.4647 170.438Z" fill="white"/>
<path d="M76.0998 171.292C76.0629 171.227 76.0231 171.163 75.9826 171.099C75.9697 171.078 75.9562 171.057 75.9421 171.036C75.9225 171.005 75.9016 170.976 75.8813 170.946C75.9077 170.984 75.9335 171.021 75.958 171.059C75.9691 171.077 75.9807 171.095 75.9918 171.113C76.0053 171.133 76.0182 171.154 76.0298 171.175C76.0476 171.203 76.0642 171.232 76.0807 171.26C76.0881 171.271 76.0942 171.283 76.0998 171.292Z" fill="white"/>
<path d="M76.4752 174.584C76.4145 174.79 76.3396 174.988 76.2513 175.177C76.339 174.988 76.4139 174.79 76.4752 174.584Z" fill="white"/>
<path d="M76.5887 174.106C76.5593 174.269 76.5218 174.428 76.4758 174.582C76.5212 174.428 76.5587 174.269 76.5881 174.106C76.639 173.815 76.6599 173.524 76.6501 173.237C76.6593 173.524 76.6396 173.815 76.5887 174.106Z" fill="white"/>
<path d="M76.3488 171.811C76.4556 172.078 76.5353 172.356 76.5863 172.641C76.5353 172.356 76.455 172.078 76.3488 171.811Z" fill="white"/>
<path d="M70.7811 161.239V161.238C70.6534 160.885 70.5166 160.535 70.3688 160.189C68.0742 154.789 63.4291 150.463 57.3687 148.832C46.8945 146.014 36.0946 152.298 33.2944 162.839C30.493 173.383 36.7363 184.254 47.2105 187.072C53.6605 188.808 60.2339 187.092 64.9844 183.055C64.9409 182.97 64.8991 182.884 64.8568 182.797C64.8261 182.735 64.7961 182.671 64.7666 182.608C64.7409 182.552 64.7145 182.498 64.6899 182.442C64.6574 182.373 64.6261 182.302 64.5954 182.232C64.5629 182.158 64.5316 182.086 64.5004 182.012C64.4942 181.999 64.4893 181.984 64.4838 181.971C59.9915 185.918 53.6881 187.622 47.5068 185.959C37.6425 183.305 31.763 173.066 34.4 163.138C37.0382 153.21 47.2093 147.291 57.0736 149.946C62.8911 151.511 67.3244 155.715 69.4405 160.936C69.573 161.263 69.6963 161.592 69.8104 161.926V161.927C70.6264 164.323 70.9669 166.902 70.7467 169.52V169.521C70.654 170.6 70.4694 171.684 70.1816 172.767C70 173.455 69.7804 174.122 69.5288 174.77V174.771C69.5515 174.813 69.5742 174.853 69.5976 174.894C69.6239 174.941 69.6515 174.985 69.6804 175.03C69.7086 175.076 69.7374 175.119 69.7681 175.163C69.7988 175.207 69.8289 175.25 69.8608 175.293C69.892 175.335 69.9246 175.378 69.9583 175.419C69.9914 175.46 70.0264 175.501 70.0608 175.541C70.0951 175.581 70.1313 175.62 70.1669 175.659C70.2031 175.698 70.2399 175.735 70.2767 175.772C70.278 175.775 70.2798 175.776 70.2804 175.776C70.2982 175.795 70.316 175.812 70.3344 175.83L70.3356 175.829C70.7142 174.945 71.0338 174.024 71.2884 173.066C71.4529 172.451 71.5842 171.836 71.6866 171.22C71.7995 170.543 71.8762 169.866 71.9185 169.192V169.19C72.0885 166.439 71.6817 163.741 70.7811 161.239Z" fill="#36588E"/>
<path d="M100.669 81.2783C100.669 81.2783 99.0476 82.5522 97.407 83.652C96.8064 84.0539 96.2045 84.4331 95.6781 84.7178C93.7117 85.7792 91.0496 84.1663 91.0496 84.1663C91.0496 84.1663 82.8007 71.7651 81.6019 70.9698C80.4043 70.175 77.8888 68.2034 78.2318 66.6423C78.5729 65.0801 82.2075 65.8192 83.1799 66.5182C84.1523 67.2172 84.2941 69.2019 84.5419 69.9737C84.791 70.7456 93.489 80.286 93.489 80.286L96.2376 77.7499L97.2757 76.7928L100.669 81.2783Z" fill="#FDC8AA"/>
<path d="M100.669 81.2782C100.669 81.2782 99.0476 82.5521 97.407 83.6519C97.1076 82.2323 96.4229 78.9589 96.2376 77.7498L97.2757 76.7927L100.669 81.2782Z" fill="#FBB188"/>
<path d="M80.0441 102.064L78.5342 103.295L77.7158 103.961C77.7158 103.961 76.2679 105.648 76.1089 105.874C75.9519 106.1 70.8884 104.675 70.8884 104.675L74.7303 101.42L77.2562 99.2783L80.0441 102.064Z" fill="#FDC8AA"/>
<path d="M78.8189 110.363C77.3955 111.843 63.8199 109.831 63.023 108.7C62.9193 108.551 62.8487 108.411 62.8101 108.276C62.545 107.378 63.6211 106.77 64.8629 106.621C66.29 106.45 71.1995 103.858 71.2946 103.855C71.3878 103.849 73.8579 104.927 74.9444 105.081C76.0328 105.234 76.4586 103.61 77.4366 103.437C78.4146 103.264 79.025 104.45 79.0606 104.491C79.0606 104.491 79.6766 106.777 79.4846 108.608C79.4091 109.312 79.2146 109.95 78.8189 110.363Z" fill="#A8B2E8"/>
<path d="M78.8189 110.362C77.3955 111.843 63.82 109.831 63.023 108.699C62.9193 108.551 62.8487 108.41 62.8101 108.276C70.1804 110.552 77.3544 109.129 79.4834 108.607C79.4091 109.312 79.2146 109.95 78.8189 110.362Z" fill="#1F3A6F"/>
<path d="M80.0441 102.064L78.5342 103.295C77.7974 102.942 76.0181 102.06 74.731 101.42L77.2569 99.2783L80.0441 102.064Z" fill="#F4A882"/>
<path d="M99.1709 138.497L99.0752 140.366L98.8408 145.001L94.108 145.089L93.8479 138.476L99.1709 138.497Z" fill="#FDC8AA"/>
<path d="M103.429 148.923C102.229 151.045 86.0524 152.768 84.8057 151.705C84.6437 151.566 84.521 151.425 84.437 151.282C83.8688 150.329 84.9266 149.312 86.3082 148.772C87.8967 148.152 92.773 143.717 92.881 143.686C92.9865 143.651 96.1382 144.155 97.4309 144.01C98.7254 143.862 98.7377 141.87 99.8096 141.381C100.881 140.892 101.931 142.073 101.983 142.11C101.983 142.11 103.361 144.551 103.677 146.71C103.798 147.541 103.763 148.332 103.429 148.923Z" fill="#A8B2E8"/>
<path d="M103.429 148.923C102.229 151.045 86.0524 152.768 84.8057 151.705C84.6438 151.566 84.5211 151.425 84.437 151.282C93.5663 151.706 101.386 147.941 103.677 146.71C103.798 147.541 103.763 148.332 103.429 148.923Z" fill="#1F3A6F"/>
<path d="M99.1709 138.497L99.0752 140.366L93.9915 142.122L93.8479 138.476L99.1709 138.497Z" fill="#F4A882"/>
<path d="M109.451 97.8317C109.451 97.8317 101.734 108.668 99.1242 109.625C98.4395 109.876 97.7285 109.26 97.0284 108.182C95.0639 105.146 93.2037 98.4443 92.3748 97.1068C91.2514 95.2919 79.0379 103.266 79.0379 103.266L76.6574 98.9191C76.6574 98.9191 89.979 87.0415 94.8608 86.5475C99.1058 86.1178 102.207 95.006 103.339 97.539C103.508 97.92 103.633 98.1571 103.712 98.1991C104.313 98.5202 105.283 98.2374 105.485 98.2423L109.451 97.8317Z" fill="#413A93"/>
<path d="M109.451 97.8315C109.451 97.8315 101.734 108.668 99.1243 109.625C98.4396 109.876 97.7285 109.26 97.0284 108.181L103.339 97.5388C103.508 97.9198 103.633 98.1569 103.712 98.1989C104.313 98.52 105.283 98.2372 105.485 98.2422L109.451 97.8315Z" fill="#332C84"/>
<path d="M120.846 104.565C120.224 108.139 118.712 112.206 115.113 113.409C108.286 115.693 100.961 120.187 100.961 120.187L99.3378 139.828L93.5326 139.686C93.5326 139.686 92.6393 117.763 93.1289 116.397C93.5577 115.199 103.066 103.456 105.586 99.5982C105.941 99.0542 106.156 98.667 106.189 98.4885C106.452 97.0399 121.252 98.5484 121.252 98.5484C121.252 98.5484 121.406 101.361 120.846 104.565Z" fill="#413A93"/>
<path d="M120.846 104.565C117.369 100.749 108.025 99.7866 105.585 99.5989C105.941 99.0549 106.155 98.6677 106.188 98.4893C106.452 97.0406 121.252 98.5492 121.252 98.5492C121.252 98.5492 121.406 101.361 120.846 104.565Z" fill="#332C84"/>
<path d="M117.779 53.1303C117.779 53.1303 125.262 45.6548 127.655 52.1836C130.047 58.7124 123.811 56.9909 123.811 56.9909L117.779 53.1303Z" fill="#1F3A6F"/>
<path d="M119.196 53.2451C117.101 52.4806 114.77 52.7536 112.886 53.9534C111.03 55.1365 108.508 56.9458 108.53 58.0363C108.565 59.7603 109.102 59.5436 111.164 59.249C113.225 58.9545 117.869 65.1554 117.665 67.3333C117.461 69.5106 116.088 77.7511 118.511 81.4092C120.934 85.0673 132.046 88.0942 130.955 79.6444C129.865 71.1945 126.135 72.6315 127.306 65.0788C128.169 59.5102 123.592 54.85 119.196 53.2451Z" fill="#1F3A6F"/>
<path d="M125.85 57.4355L125.376 58.0363C125.228 58.2241 124.957 58.2549 124.771 58.1061L118.028 52.7178C117.842 52.569 117.811 52.2961 117.959 52.109L118.433 51.5081C118.581 51.3204 118.852 51.2895 119.038 51.4384L125.78 56.8267C125.966 56.9755 125.997 57.2478 125.85 57.4355Z" fill="#575FCF"/>
<path d="M139.747 114.162C139.083 113.321 138.331 112.194 138.059 112.341C137.791 112.487 140.835 115.643 140.093 116.372C139.355 117.101 137.439 113.685 136.98 113.75C136.522 113.815 138.74 116.53 137.731 116.505C136.724 116.481 135.786 113.588 134.248 112.668C132.711 111.752 132.275 111.701 132.092 112.214C131.908 112.727 133.612 114.625 133.029 115.147C132.445 115.669 130.091 113.908 129.493 111.883C129.034 110.329 124.669 94.5476 122.662 87.2865C122.053 85.0832 121.661 83.6642 121.661 83.6642L126.725 81.9111L127.081 83.5111L132.356 107.27C132.356 107.27 139.199 110.089 140.136 112.295C141.071 114.5 140.412 115.002 139.747 114.162Z" fill="#FDC8AA"/>
<path d="M127.08 83.5117L122.661 87.2865C122.052 85.0832 121.66 83.6642 121.66 83.6642L126.724 81.9111L127.08 83.5117Z" fill="#F4A882"/>
<path d="M116.446 70.5963L117.052 70.726C116.026 73.8023 110.702 73.7492 108.589 73.0089C106.477 72.2685 111.892 70.1029 111.892 70.1029C111.892 70.1029 111.935 69.7701 111.996 69.3014C112.134 68.2313 112.361 66.4572 112.364 66.3238L117.497 65.2722L117.034 67.6101L116.446 70.5963Z" fill="#FDC8AA"/>
<path d="M120.574 84.1848C120.642 84.6337 122.976 99.6859 121.283 99.3919C120.354 99.2302 118.238 98.9214 116.046 98.7405C114.193 98.5898 112.286 98.5293 111.003 98.7325C108.202 99.1758 104.228 99.8952 104.655 96.9454C105.08 93.9938 105.436 79.1985 104.63 78.9737L100.548 82.0402L99.2409 80.3434L96.2198 76.421C96.2198 76.421 104.753 69.5482 111.893 70.1015L117.052 70.7246C117.052 70.7246 123.89 69.5507 125.721 75.6831C127.552 81.8155 127.526 82.8868 127.526 82.8868C127.526 82.8868 123.493 83.9582 121.07 84.2651L120.571 84.1731C120.571 84.1743 120.572 84.1774 120.574 84.1848Z" fill="#3498DB"/>
<path d="M121.283 99.3927C120.354 99.2309 118.237 98.9222 116.045 98.7413C122.339 93.6092 118.431 78.7498 118.431 78.7498L120.137 79.5568L120.568 79.5673L120.571 84.1745C120.571 84.1745 120.573 84.1776 120.574 84.185C120.642 84.6339 122.975 99.6867 121.283 99.3927Z" fill="#176FB2"/>
<path d="M104.629 78.9744L100.548 82.0409L99.2402 80.344C100.99 79.8951 104.629 78.9744 104.629 78.9744Z" fill="#176FB2"/>
<path d="M116.446 70.5963L117.052 70.726C116.026 73.8023 110.702 73.7492 108.589 73.0089C106.477 72.2685 111.892 70.1029 111.892 70.1029C111.892 70.1029 111.935 69.7701 111.996 69.3014C112.134 68.2313 112.361 66.4572 112.364 66.3238L117.497 65.2722L117.034 67.6101L116.446 70.5963Z" fill="#FDC8AA"/>
<path d="M117.498 65.2722L117.035 67.6101C116.104 68.4036 114.477 69.3384 111.995 69.3008C112.134 68.2307 112.361 66.4566 112.364 66.3232L117.498 65.2722Z" fill="#F4A882"/>
<path d="M119.635 61.934C120.155 58.38 118.243 55.153 115.364 54.7263C112.486 54.2996 109.731 56.8348 109.211 60.3888C108.691 63.9429 110.603 67.1699 113.481 67.5965C116.36 68.0232 119.115 65.488 119.635 61.934Z" fill="#FDC8AA"/>
<path d="M109.836 57.5318C109.836 57.5318 112.954 58.6544 114.858 58.5476C116.763 58.4408 117.528 59.3275 117.107 61.0275C116.685 62.7275 117.854 60.5353 118.403 61.9525C118.952 63.3697 117.126 64.4231 117.344 64.8875C117.561 65.3524 118.01 66.9456 118.401 66.9042C118.793 66.8628 121.265 64.2169 120.759 61.0139C120.253 57.8109 119.797 54.6345 117.214 54.4696C114.631 54.3048 113.134 54.2937 112.181 54.9087C111.228 55.5237 109.836 57.5318 109.836 57.5318Z" fill="#1F3A6F"/>
<path d="M95.8836 65.2091L59.6124 73.6077C58.654 73.8294 57.6982 73.2273 57.4773 72.2628L56.1048 66.257C55.8846 65.2925 56.4827 64.3304 57.4411 64.1081L93.7123 55.7095C94.6707 55.4878 95.6265 56.0899 95.8474 57.0544L97.2205 63.0602C97.4407 64.0254 96.8426 64.9874 95.8836 65.2091Z" fill="white"/>
<path d="M64.2114 67.0819L62.8812 67.3894L63.6058 66.2254L62.8506 65.7493L62.126 66.9139L61.8204 65.5752L60.9523 65.7765L61.2578 67.1152L60.1013 66.386L59.6283 67.1461L60.7854 67.8748L59.4553 68.1829L59.6553 69.0567L60.9854 68.7485L60.2609 69.9131L61.0161 70.3892L61.7401 69.2246L62.0462 70.5633L62.9144 70.362L62.6082 69.0233L63.7653 69.7526L64.2384 68.9924L63.0813 68.2632L64.4114 67.9557L64.2114 67.0819Z" fill="#3498DB"/>
<path d="M71.5762 65.3766L70.246 65.6847L70.97 64.5201L70.2148 64.0446L69.4908 65.2086L69.1846 63.8699L68.3165 64.0712L68.6227 65.4099L67.4655 64.6813L66.9931 65.4408L68.1502 66.1701L66.8195 66.4782L67.0195 67.3519L68.3496 67.0438L67.6257 68.2084L68.3809 68.6839L69.1049 67.5193L69.411 68.858L70.2792 68.6573L69.973 67.3186L71.1301 68.0472L71.6026 67.2871L70.4454 66.5585L71.7756 66.2503L71.5762 65.3766Z" fill="#3498DB"/>
<path d="M78.9404 63.6709L77.6103 63.979L78.3349 62.815L77.5796 62.3389L76.8556 63.5035L76.5495 62.1648L75.6813 62.3655L75.9869 63.7042L74.8304 62.9756L74.3573 63.7357L75.5145 64.4644L74.1843 64.7725L74.3843 65.6463L75.7145 65.3381L74.9899 66.5027L75.7451 66.9782L76.4691 65.8142L76.7753 67.1529L77.6434 66.9516L77.3379 65.6129L78.4944 66.3416L78.9674 65.582L77.8103 64.8528L79.1404 64.5453L78.9404 63.6709Z" fill="#3498DB"/>
<path d="M86.3052 61.9659L84.9751 62.2741L85.699 61.1095L84.9438 60.634L84.2198 61.798L83.9137 60.4592L83.0455 60.6605L83.3517 61.9993L82.1946 61.27L81.7221 62.0301L82.8793 62.7594L81.5491 63.0669L81.7485 63.9407L83.0787 63.6332L82.3547 64.7972L83.1099 65.2732L83.8339 64.1086L84.1401 65.4474L85.0082 65.2467L84.7021 63.908L85.8592 64.6366L86.3316 63.8765L85.1751 63.1478L86.5046 62.8397L86.3052 61.9659Z" fill="#3498DB"/>
<path d="M93.6694 60.2605L92.3392 60.5686L93.0638 59.404L92.3085 58.9285L91.5846 60.0931L91.2784 58.7544L90.4103 58.9551L90.7164 60.2938L89.5593 59.5652L89.0863 60.3253L90.2434 61.054L88.9133 61.3621L89.1133 62.2359L90.4434 61.9277L89.7188 63.0923L90.4741 63.5678L91.1987 62.4032L91.5042 63.7425L92.3723 63.5412L92.0668 62.2025L93.2233 62.9312L93.6963 62.171L92.5392 61.4424L93.8694 61.1342L93.6694 60.2605Z" fill="#3498DB"/>
<path d="M84.4026 69.5719C84.4026 69.5719 84.0456 65.8644 82.6706 65.7804C81.2957 65.6964 81.8099 66.861 82.44 67.5922C83.0707 68.3233 83.494 70.219 83.494 70.219L84.4026 69.5719Z" fill="#FDC8AA"/>
<path d="M209.572 64.6658H189.527C183.792 64.6658 179.099 69.389 179.099 75.1614C179.099 80.9338 183.792 85.657 189.527 85.657H190.504C190.504 85.657 187.653 92.9781 187.653 93.2751C187.653 93.5721 202.696 85.657 202.696 85.657H209.572C215.307 85.657 220 80.9338 220 75.1614C220 69.3884 215.307 64.6658 209.572 64.6658Z" fill="#B3BAFF" fill-opacity="0.2"/>
<path d="M191.918 74.7583L189.727 74.7786L191.262 73.2053L190.242 72.1969L188.707 73.7697L188.687 71.5652L187.257 71.5782L187.277 73.7826L185.714 72.2376L184.712 73.2645L186.275 74.8095L184.084 74.8299L184.097 76.2687L186.288 76.2489L184.753 77.8223L185.773 78.8307L187.308 77.2573L187.328 79.4624L188.758 79.4494L188.738 77.2443L190.301 78.7899L191.303 77.763L189.74 76.2174L191.931 76.1977L191.918 74.7583Z" fill="white"/>
<path d="M203.46 74.7583L201.27 74.7786L202.805 73.2053L201.784 72.1969L200.249 73.7697L200.229 71.5652L198.8 71.5782L198.819 73.7826L197.256 72.2376L196.254 73.2645L197.817 74.8095L195.626 74.8299L195.639 76.2687L197.83 76.2489L196.294 77.8223L197.315 78.8307L198.85 77.2573L198.87 79.4624L200.3 79.4494L200.28 77.2443L201.843 78.7899L202.845 77.763L201.282 76.2174L203.473 76.1977L203.46 74.7583Z" fill="white"/>
<path d="M215.002 74.7583L212.811 74.7786L214.347 73.2053L213.327 72.1969L211.791 73.7697L211.771 71.5652L210.341 71.5782L210.361 73.7826L208.798 72.2376L207.796 73.2645L209.359 74.8095L207.169 74.8299L207.182 76.2687L209.372 76.2489L207.837 77.8223L208.857 78.8307L210.392 77.2573L210.412 79.4624L211.842 79.4494L211.822 77.2443L213.386 78.7899L214.387 77.763L212.824 76.2174L215.015 76.1977L215.002 74.7583Z" fill="white"/>
<path d="M10.4282 102.197H30.4728C36.2081 102.197 40.9009 106.92 40.9009 112.692C40.9009 118.465 36.2081 123.188 30.4728 123.188H29.496C29.496 123.188 32.3471 130.509 32.3471 130.806C32.3471 131.103 17.304 123.188 17.304 123.188H10.4282C4.69289 123.188 0 118.465 0 112.692C0 106.919 4.69289 102.197 10.4282 102.197Z" fill="#B3BAFF" fill-opacity="0.2"/>
<path d="M28.0819 112.289L30.2728 112.309L28.7377 110.736L29.758 109.727L31.2931 111.301L31.3127 109.095L32.7428 109.108L32.7232 111.314L34.2865 109.769L35.2884 110.795L33.7251 112.34L35.916 112.36L35.9031 113.8L33.7122 113.78L35.2473 115.353L34.227 116.362L32.6919 114.788L32.6723 116.993L31.2421 116.98L31.2618 114.775L29.6991 116.32L28.6966 115.293L30.2599 113.748L28.069 113.729L28.0819 112.289Z" fill="white"/>
<path d="M16.5401 112.289L18.7304 112.309L17.1954 110.736L18.2157 109.727L19.7507 111.301L19.771 109.095L21.2005 109.108L21.1809 111.314L22.7441 109.769L23.746 110.795L22.1828 112.34L24.3737 112.36L24.3608 113.8L22.1699 113.78L23.7055 115.353L22.6852 116.362L21.1496 114.788L21.1299 116.993L19.6998 116.98L19.7201 114.775L18.1568 116.32L17.1549 115.293L18.7176 113.748L16.5273 113.729L16.5401 112.289Z" fill="white"/>
<path d="M4.99781 112.289L7.18872 112.309L5.65367 110.736L6.67397 109.727L8.20902 111.301L8.22865 109.095L9.65879 109.108L9.63855 111.314L11.2018 109.769L12.2037 110.795L10.6411 112.34L12.832 112.36L12.8191 113.8L10.6282 113.78L12.1632 115.353L11.1429 116.362L9.60787 114.788L9.58762 116.993L8.1581 116.98L8.17773 114.775L6.61446 116.32L5.61257 115.293L7.17584 113.748L4.98492 113.729L4.99781 112.289Z" fill="white"/>
<path d="M31.7769 43.8437C35.8656 39.7286 35.8656 33.0566 31.7769 28.9414C27.6882 24.8263 21.0591 24.8263 16.9704 28.9414C12.8817 33.0566 12.8817 39.7286 16.9704 43.8437C21.0591 47.9589 27.6882 47.9589 31.7769 43.8437Z" fill="#DADDFF" fill-opacity="0.15"/>
<defs>
<linearGradient id="paint0_linear_156_1063" x1="113.439" y1="21.2415" x2="113.439" y2="193.904" gradientUnits="userSpaceOnUse">
<stop stop-color="#C7CCFF" stop-opacity="0.15"/>
<stop offset="1" stop-color="#D5D9FF" stop-opacity="0"/>
</linearGradient>
</defs>
</svg>
