<svg width="114" height="108" viewBox="0 0 114 108" fill="none" xmlns="http://www.w3.org/2000/svg">
<g clip-path="url(#clip0_1_1380)">
<ellipse cx="57.0196" cy="52.9357" rx="37.0196" ry="36.9357" fill="url(#paint0_linear_1_1380)"/>
<g filter="url(#filter0_d_1_1380)">
<path d="M58.2252 52.8714C63.9782 52.8714 68.6419 48.2077 68.6419 42.4548C68.6419 36.7018 63.9782 32.0381 58.2252 32.0381C52.4722 32.0381 47.8085 36.7018 47.8085 42.4548C47.8085 48.2077 52.4722 52.8714 58.2252 52.8714Z" fill="#F2F8FD"/>
</g>
<g filter="url(#filter1_d_1_1380)">
<path d="M58.2252 58.0796C47.7877 58.0796 39.2877 65.0796 39.2877 73.7046C39.2877 74.2879 39.746 74.7463 40.3294 74.7463H76.121C76.7044 74.7463 77.1627 74.2879 77.1627 73.7046C77.1627 65.0796 68.6627 58.0796 58.2252 58.0796Z" fill="#D8EFFF"/>
</g>
<circle cx="100" cy="10" r="6" fill="#E3EFFB"/>
<circle cx="5" cy="54" r="4" fill="#E3EFFB"/>
<circle cx="101" cy="96" r="12" fill="#E3EFFB"/>
<circle cx="9" cy="7" r="3" fill="#E3EFFB"/>
</g>
<defs>
<filter id="filter0_d_1_1380" x="39.8085" y="22.501" width="36.8333" height="36.8333" filterUnits="userSpaceOnUse" color-interpolation-filters="sRGB">
<feFlood flood-opacity="0" result="BackgroundImageFix"/>
<feColorMatrix in="SourceAlpha" type="matrix" values="0 0 0 0 0 0 0 0 0 0 0 0 0 0 0 0 0 0 127 0" result="hardAlpha"/>
<feOffset dy="-1.53704"/>
<feGaussianBlur stdDeviation="4"/>
<feComposite in2="hardAlpha" operator="out"/>
<feColorMatrix type="matrix" values="0 0 0 0 0 0 0 0 0 0.4105 0 0 0 0 0.684167 0 0 0 0.5 0"/>
<feBlend mode="normal" in2="BackgroundImageFix" result="effect1_dropShadow_1_1380"/>
<feBlend mode="normal" in="SourceGraphic" in2="effect1_dropShadow_1_1380" result="shape"/>
</filter>
<filter id="filter1_d_1_1380" x="31.2877" y="48.5426" width="53.875" height="32.6667" filterUnits="userSpaceOnUse" color-interpolation-filters="sRGB">
<feFlood flood-opacity="0" result="BackgroundImageFix"/>
<feColorMatrix in="SourceAlpha" type="matrix" values="0 0 0 0 0 0 0 0 0 0 0 0 0 0 0 0 0 0 127 0" result="hardAlpha"/>
<feOffset dy="-1.53704"/>
<feGaussianBlur stdDeviation="4"/>
<feComposite in2="hardAlpha" operator="out"/>
<feColorMatrix type="matrix" values="0 0 0 0 0 0 0 0 0 0.4105 0 0 0 0 0.684167 0 0 0 0.5 0"/>
<feBlend mode="normal" in2="BackgroundImageFix" result="effect1_dropShadow_1_1380"/>
<feBlend mode="normal" in="SourceGraphic" in2="effect1_dropShadow_1_1380" result="shape"/>
</filter>
<linearGradient id="paint0_linear_1_1380" x1="57.0196" y1="16" x2="57.0196" y2="89.8714" gradientUnits="userSpaceOnUse">
<stop stop-color="#3498DB"/>
<stop offset="1" stop-color="#0069B0"/>
</linearGradient>
<clipPath id="clip0_1_1380">
<rect width="112.972" height="107.593" fill="white" transform="translate(0.513885)"/>
</clipPath>
</defs>
</svg>
