<svg width="324" height="220" viewBox="0 0 324 220" fill="none" xmlns="http://www.w3.org/2000/svg">
<ellipse cx="160.431" cy="70.3488" rx="57.1452" ry="57.0156" fill="url(#paint0_linear_1_1470)"/>
<g filter="url(#filter0_d_1_1470)">
<path d="M177.392 124.06C174.698 107.071 172.148 90.9936 169.487 74.2215C167.847 75.5667 166.52 76.612 165.24 77.7137C155.522 86.0819 144.825 92.805 132.756 97.3039C128.664 98.8303 124.973 98.7679 121.122 96.3358C113.708 91.6558 106.095 87.2965 98.5228 82.7798C101.318 79.1153 104.452 77.8949 108.767 78.4086C114.711 79.1183 120.744 79.2579 126.738 79.2965C128.557 79.3084 130.789 78.658 132.149 77.5088C153.12 59.7776 173.996 41.9335 194.854 24.0716C200.592 19.1599 207.224 16.7367 214.709 16.906C221.218 17.0515 223.953 21.1792 221.171 27.0619C219.73 30.1057 217.426 32.9505 214.92 35.2401C208.819 40.8228 202.408 46.076 196.045 51.3678C194.286 52.8318 193.387 54.3492 193.199 56.7635C191.827 74.4264 190.157 92.0656 188.824 109.729C188.526 113.657 187.22 116.541 183.958 118.735C181.898 120.119 180.077 121.859 177.389 124.06H177.392Z" fill="#E3EFFB"/>
</g>
<path d="M119.756 49.9096C124.619 45.7166 128.039 40.3001 135.861 41.4969C143.754 42.7055 151.829 42.7471 159.82 43.3113C160.487 43.3588 161.15 43.4895 162.481 43.6765C156.522 48.6773 151.085 53.2801 145.581 57.8027C145.055 58.2363 144.016 58.4887 143.382 58.2927C136.06 56.0121 128.765 53.6394 121.479 51.2459C120.97 51.0797 120.58 50.5629 119.759 49.9096H119.756Z" fill="#F2F8FD"/>
<g filter="url(#filter1_di_1_1470)">
<path d="M97.612 157.496V162.92H88.684V191H81.964V162.92H73.036V157.496H97.612ZM109.235 168.536C110.099 167.128 111.219 166.024 112.595 165.224C114.003 164.424 115.603 164.024 117.395 164.024V171.08H115.619C113.507 171.08 111.907 171.576 110.819 172.568C109.763 173.56 109.235 175.288 109.235 177.752V191H102.515V164.408H109.235V168.536ZM120.193 177.608C120.193 174.92 120.721 172.536 121.777 170.456C122.865 168.376 124.321 166.776 126.145 165.656C128.001 164.536 130.065 163.976 132.337 163.976C134.321 163.976 136.049 164.376 137.521 165.176C139.025 165.976 140.225 166.984 141.121 168.2V164.408H147.889V191H141.121V187.112C140.257 188.36 139.057 189.4 137.521 190.232C136.017 191.032 134.273 191.432 132.289 191.432C130.049 191.432 128.001 190.856 126.145 189.704C124.321 188.552 122.865 186.936 121.777 184.856C120.721 182.744 120.193 180.328 120.193 177.608ZM141.121 177.704C141.121 176.072 140.801 174.68 140.161 173.528C139.521 172.344 138.657 171.448 137.569 170.84C136.481 170.2 135.313 169.88 134.065 169.88C132.817 169.88 131.665 170.184 130.609 170.792C129.553 171.4 128.689 172.296 128.017 173.48C127.377 174.632 127.057 176.008 127.057 177.608C127.057 179.208 127.377 180.616 128.017 181.832C128.689 183.016 129.553 183.928 130.609 184.568C131.697 185.208 132.849 185.528 134.065 185.528C135.313 185.528 136.481 185.224 137.569 184.616C138.657 183.976 139.521 183.08 140.161 181.928C140.801 180.744 141.121 179.336 141.121 177.704ZM165.541 184.808L172.261 164.408H179.413L169.573 191H161.413L151.621 164.408H158.821L165.541 184.808ZM207.907 177.128C207.907 178.088 207.843 178.952 207.715 179.72H188.275C188.435 181.64 189.107 183.144 190.291 184.232C191.475 185.32 192.931 185.864 194.659 185.864C197.155 185.864 198.931 184.792 199.987 182.648H207.235C206.467 185.208 204.995 187.32 202.819 188.984C200.643 190.616 197.971 191.432 194.803 191.432C192.243 191.432 189.939 190.872 187.891 189.752C185.875 188.6 184.291 186.984 183.139 184.904C182.019 182.824 181.459 180.424 181.459 177.704C181.459 174.952 182.019 172.536 183.139 170.456C184.259 168.376 185.827 166.776 187.843 165.656C189.859 164.536 192.179 163.976 194.803 163.976C197.331 163.976 199.587 164.52 201.571 165.608C203.587 166.696 205.139 168.248 206.227 170.264C207.347 172.248 207.907 174.536 207.907 177.128ZM200.947 175.208C200.915 173.48 200.291 172.104 199.075 171.08C197.859 170.024 196.371 169.496 194.611 169.496C192.947 169.496 191.539 170.008 190.387 171.032C189.267 172.024 188.579 173.416 188.323 175.208H200.947ZM219.532 155.48V191H212.812V155.48H219.532Z" fill="url(#paint1_linear_1_1470)"/>
<path d="M237.979 191.432C235.419 191.432 233.115 190.872 231.067 189.752C229.019 188.6 227.403 186.984 226.219 184.904C225.067 182.824 224.491 180.424 224.491 177.704C224.491 174.984 225.083 172.584 226.267 170.504C227.483 168.424 229.131 166.824 231.211 165.704C233.291 164.552 235.611 163.976 238.171 163.976C240.731 163.976 243.051 164.552 245.131 165.704C247.211 166.824 248.843 168.424 250.027 170.504C251.243 172.584 251.851 174.984 251.851 177.704C251.851 180.424 251.227 182.824 249.979 184.904C248.763 186.984 247.099 188.6 244.987 189.752C242.907 190.872 240.571 191.432 237.979 191.432ZM237.979 185.576C239.195 185.576 240.331 185.288 241.387 184.712C242.475 184.104 243.339 183.208 243.979 182.024C244.619 180.84 244.939 179.4 244.939 177.704C244.939 175.176 244.267 173.24 242.923 171.896C241.611 170.52 239.995 169.832 238.075 169.832C236.155 169.832 234.539 170.52 233.227 171.896C231.947 173.24 231.307 175.176 231.307 177.704C231.307 180.232 231.931 182.184 233.179 183.56C234.459 184.904 236.059 185.576 237.979 185.576Z" fill="#3498DB"/>
</g>
<path d="M70.0283 215L66.5683 209.16H63.9883V215H62.5883V201.02H66.7883C68.3483 201.02 69.5283 201.393 70.3283 202.14C71.1416 202.886 71.5483 203.866 71.5483 205.08C71.5483 206.093 71.2549 206.96 70.6683 207.68C70.0949 208.386 69.2416 208.846 68.1083 209.06L71.7083 215H70.0283ZM63.9883 208.02H66.8083C67.9016 208.02 68.7216 207.753 69.2683 207.22C69.8283 206.686 70.1083 205.973 70.1083 205.08C70.1083 204.16 69.8416 203.453 69.3083 202.96C68.7749 202.453 67.9349 202.2 66.7883 202.2H63.9883V208.02ZM87.6066 215.14C86.3132 215.14 85.1399 214.84 84.0866 214.24C83.0332 213.626 82.1999 212.78 81.5866 211.7C80.9866 210.606 80.6866 209.373 80.6866 208C80.6866 206.626 80.9866 205.4 81.5866 204.32C82.1999 203.226 83.0332 202.38 84.0866 201.78C85.1399 201.166 86.3132 200.86 87.6066 200.86C88.9132 200.86 90.0932 201.166 91.1466 201.78C92.1999 202.38 93.0266 203.226 93.6266 204.32C94.2266 205.4 94.5266 206.626 94.5266 208C94.5266 209.373 94.2266 210.606 93.6266 211.7C93.0266 212.78 92.1999 213.626 91.1466 214.24C90.0932 214.84 88.9132 215.14 87.6066 215.14ZM87.6066 213.92C88.6466 213.92 89.5799 213.68 90.4066 213.2C91.2332 212.72 91.8866 212.033 92.3666 211.14C92.8466 210.233 93.0866 209.186 93.0866 208C93.0866 206.813 92.8466 205.773 92.3666 204.88C91.8866 203.986 91.2332 203.3 90.4066 202.82C89.5799 202.34 88.6466 202.1 87.6066 202.1C86.5666 202.1 85.6332 202.34 84.8066 202.82C83.9799 203.3 83.3266 203.986 82.8466 204.88C82.3666 205.773 82.1266 206.813 82.1266 208C82.1266 209.186 82.3666 210.233 82.8466 211.14C83.3266 212.033 83.9799 212.72 84.8066 213.2C85.6332 213.68 86.5666 213.92 87.6066 213.92ZM112.188 211.68H105.828L104.608 215H103.128L108.228 201.2H109.808L114.888 215H113.408L112.188 211.68ZM111.768 210.52L109.008 202.96L106.248 210.52H111.768ZM137.795 201.2V215H136.395V203.98L131.475 215H130.455L125.535 204.02V215H124.135V201.2H125.615L130.955 213.16L136.295 201.2H137.795ZM168.559 211.68H162.199L160.979 215H159.499L164.599 201.2H166.179L171.259 215H169.779L168.559 211.68ZM168.139 210.52L165.379 202.96L162.619 210.52H168.139ZM187.946 215L184.486 209.16H181.906V215H180.506V201.02H184.706C186.266 201.02 187.446 201.393 188.246 202.14C189.06 202.886 189.466 203.866 189.466 205.08C189.466 206.093 189.173 206.96 188.586 207.68C188.013 208.386 187.16 208.846 186.026 209.06L189.626 215H187.946ZM181.906 208.02H184.726C185.82 208.02 186.64 207.753 187.186 207.22C187.746 206.686 188.026 205.973 188.026 205.08C188.026 204.16 187.76 203.453 187.226 202.96C186.693 202.453 185.853 202.2 184.706 202.2H181.906V208.02ZM205.525 215.14C204.231 215.14 203.058 214.84 202.005 214.24C200.951 213.626 200.118 212.78 199.505 211.7C198.905 210.606 198.605 209.373 198.605 208C198.605 206.626 198.905 205.4 199.505 204.32C200.118 203.226 200.951 202.38 202.005 201.78C203.058 201.166 204.231 200.86 205.525 200.86C206.831 200.86 208.011 201.166 209.065 201.78C210.118 202.38 210.945 203.226 211.545 204.32C212.145 205.4 212.445 206.626 212.445 208C212.445 209.373 212.145 210.606 211.545 211.7C210.945 212.78 210.118 213.626 209.065 214.24C208.011 214.84 206.831 215.14 205.525 215.14ZM205.525 213.92C206.565 213.92 207.498 213.68 208.325 213.2C209.151 212.72 209.805 212.033 210.285 211.14C210.765 210.233 211.005 209.186 211.005 208C211.005 206.813 210.765 205.773 210.285 204.88C209.805 203.986 209.151 203.3 208.325 202.82C207.498 202.34 206.565 202.1 205.525 202.1C204.485 202.1 203.551 202.34 202.725 202.82C201.898 203.3 201.245 203.986 200.765 204.88C200.285 205.773 200.045 206.813 200.045 208C200.045 209.186 200.285 210.233 200.765 211.14C201.245 212.033 201.898 212.72 202.725 213.2C203.551 213.68 204.485 213.92 205.525 213.92ZM223.346 201.02V209.82C223.346 211.206 223.673 212.233 224.326 212.9C224.993 213.566 225.9 213.9 227.046 213.9C228.193 213.9 229.086 213.573 229.726 212.92C230.38 212.253 230.706 211.22 230.706 209.82V201.02H232.106V209.8C232.106 211.573 231.633 212.906 230.686 213.8C229.753 214.693 228.533 215.14 227.026 215.14C225.52 215.14 224.293 214.693 223.346 213.8C222.413 212.906 221.946 211.573 221.946 209.8V201.02H223.346ZM252.769 215H251.369L243.629 203.24V215H242.229V201.02H243.629L251.369 212.76V201.02H252.769V215ZM267.08 201.02C268.627 201.02 269.953 201.3 271.06 201.86C272.167 202.42 273.013 203.226 273.6 204.28C274.187 205.333 274.48 206.586 274.48 208.04C274.48 209.48 274.187 210.726 273.6 211.78C273.013 212.82 272.167 213.62 271.06 214.18C269.953 214.726 268.627 215 267.08 215H262.94V201.02H267.08ZM267.08 213.84C269.027 213.84 270.507 213.333 271.52 212.32C272.547 211.293 273.06 209.866 273.06 208.04C273.06 206.2 272.547 204.766 271.52 203.74C270.507 202.7 269.027 202.18 267.08 202.18H264.34V213.84H267.08Z" fill="#5E6064"/>
<defs>
<filter id="filter0_d_1_1470" x="92.5228" y="8.8977" width="135.73" height="119.162" filterUnits="userSpaceOnUse" color-interpolation-filters="sRGB">
<feFlood flood-opacity="0" result="BackgroundImageFix"/>
<feColorMatrix in="SourceAlpha" type="matrix" values="0 0 0 0 0 0 0 0 0 0 0 0 0 0 0 0 0 0 127 0" result="hardAlpha"/>
<feOffset dy="-2"/>
<feGaussianBlur stdDeviation="3"/>
<feComposite in2="hardAlpha" operator="out"/>
<feColorMatrix type="matrix" values="0 0 0 0 0 0 0 0 0 0.4105 0 0 0 0 0.684167 0 0 0 0.5 0"/>
<feBlend mode="normal" in2="BackgroundImageFix" result="effect1_dropShadow_1_1470"/>
<feBlend mode="normal" in="SourceGraphic" in2="effect1_dropShadow_1_1470" result="shape"/>
</filter>
<filter id="filter1_di_1_1470" x="65.036" y="155.48" width="194.815" height="51.9519" filterUnits="userSpaceOnUse" color-interpolation-filters="sRGB">
<feFlood flood-opacity="0" result="BackgroundImageFix"/>
<feColorMatrix in="SourceAlpha" type="matrix" values="0 0 0 0 0 0 0 0 0 0 0 0 0 0 0 0 0 0 127 0" result="hardAlpha"/>
<feOffset dy="8"/>
<feGaussianBlur stdDeviation="4"/>
<feComposite in2="hardAlpha" operator="out"/>
<feColorMatrix type="matrix" values="0 0 0 0 0 0 0 0 0 0 0 0 0 0 0 0 0 0 0.1 0"/>
<feBlend mode="normal" in2="BackgroundImageFix" result="effect1_dropShadow_1_1470"/>
<feBlend mode="normal" in="SourceGraphic" in2="effect1_dropShadow_1_1470" result="shape"/>
<feColorMatrix in="SourceAlpha" type="matrix" values="0 0 0 0 0 0 0 0 0 0 0 0 0 0 0 0 0 0 127 0" result="hardAlpha"/>
<feOffset dy="8"/>
<feGaussianBlur stdDeviation="4"/>
<feComposite in2="hardAlpha" operator="arithmetic" k2="-1" k3="1"/>
<feColorMatrix type="matrix" values="0 0 0 0 0 0 0 0 0 0.0429142 0 0 0 0 0.0716667 0 0 0 0.25 0"/>
<feBlend mode="normal" in2="shape" result="effect2_innerShadow_1_1470"/>
</filter>
<linearGradient id="paint0_linear_1_1470" x1="160.431" y1="13.3333" x2="160.431" y2="127.364" gradientUnits="userSpaceOnUse">
<stop stop-color="#3498DB"/>
<stop offset="1" stop-color="#0069B0"/>
</linearGradient>
<linearGradient id="paint1_linear_1_1470" x1="162.5" y1="148" x2="162.5" y2="201" gradientUnits="userSpaceOnUse">
<stop stop-color="#007CF2"/>
<stop offset="1" stop-color="#425A71"/>
</linearGradient>
</defs>
</svg>
